<mxfile host="app.diagrams.net" modified="2023-12-12T07:47:54.088Z" agent="Mozilla/5.0 (Windows NT 10.0; Win64; x64; rv:120.0) Gecko/20100101 Firefox/120.0" etag="sEIQCXvpRfAOojI9_Ahg" version="22.1.7" type="github">
  <diagram name="Page-1" id="JJoeDc1nS-Evcq78UqNU">
    <mxGraphModel dx="733" dy="392" grid="1" gridSize="10" guides="1" tooltips="1" connect="1" arrows="1" fold="1" page="1" pageScale="1" pageWidth="850" pageHeight="1100" math="0" shadow="0">
      <root>
        <mxCell id="0" />
        <mxCell id="1" parent="0" />
        <mxCell id="wVkEjL2hmuCHA1ZH5ngO-32" style="edgeStyle=orthogonalEdgeStyle;rounded=0;orthogonalLoop=1;jettySize=auto;html=1;exitX=0.5;exitY=1;exitDx=0;exitDy=0;entryX=0.5;entryY=0;entryDx=0;entryDy=0;" edge="1" parent="1" source="wVkEjL2hmuCHA1ZH5ngO-14" target="wVkEjL2hmuCHA1ZH5ngO-15">
          <mxGeometry relative="1" as="geometry" />
        </mxCell>
        <mxCell id="wVkEjL2hmuCHA1ZH5ngO-14" value="Start" style="rounded=1;whiteSpace=wrap;html=1;" vertex="1" parent="1">
          <mxGeometry x="350" y="10" width="120" height="60" as="geometry" />
        </mxCell>
        <mxCell id="wVkEjL2hmuCHA1ZH5ngO-33" style="edgeStyle=orthogonalEdgeStyle;rounded=0;orthogonalLoop=1;jettySize=auto;html=1;exitX=0.5;exitY=1;exitDx=0;exitDy=0;entryX=0.5;entryY=0;entryDx=0;entryDy=0;" edge="1" parent="1" source="wVkEjL2hmuCHA1ZH5ngO-15" target="wVkEjL2hmuCHA1ZH5ngO-16">
          <mxGeometry relative="1" as="geometry" />
        </mxCell>
        <mxCell id="wVkEjL2hmuCHA1ZH5ngO-15" value="Connect to Google via API key" style="rounded=0;whiteSpace=wrap;html=1;" vertex="1" parent="1">
          <mxGeometry x="350" y="90" width="120" height="60" as="geometry" />
        </mxCell>
        <mxCell id="wVkEjL2hmuCHA1ZH5ngO-34" style="edgeStyle=orthogonalEdgeStyle;rounded=0;orthogonalLoop=1;jettySize=auto;html=1;exitX=0.5;exitY=1;exitDx=0;exitDy=0;entryX=0.5;entryY=0;entryDx=0;entryDy=0;" edge="1" parent="1" source="wVkEjL2hmuCHA1ZH5ngO-16" target="wVkEjL2hmuCHA1ZH5ngO-18">
          <mxGeometry relative="1" as="geometry" />
        </mxCell>
        <mxCell id="wVkEjL2hmuCHA1ZH5ngO-16" value="VIdeo URL" style="shape=parallelogram;perimeter=parallelogramPerimeter;whiteSpace=wrap;html=1;fixedSize=1;" vertex="1" parent="1">
          <mxGeometry x="350" y="170" width="120" height="60" as="geometry" />
        </mxCell>
        <mxCell id="wVkEjL2hmuCHA1ZH5ngO-35" style="edgeStyle=orthogonalEdgeStyle;rounded=0;orthogonalLoop=1;jettySize=auto;html=1;exitX=0.5;exitY=1;exitDx=0;exitDy=0;entryX=0.5;entryY=0;entryDx=0;entryDy=0;" edge="1" parent="1" source="wVkEjL2hmuCHA1ZH5ngO-18" target="wVkEjL2hmuCHA1ZH5ngO-19">
          <mxGeometry relative="1" as="geometry" />
        </mxCell>
        <mxCell id="wVkEjL2hmuCHA1ZH5ngO-18" value="Extract Video ID from URL" style="rounded=0;whiteSpace=wrap;html=1;" vertex="1" parent="1">
          <mxGeometry x="350" y="250" width="120" height="60" as="geometry" />
        </mxCell>
        <mxCell id="wVkEjL2hmuCHA1ZH5ngO-36" style="edgeStyle=orthogonalEdgeStyle;rounded=0;orthogonalLoop=1;jettySize=auto;html=1;exitX=0.5;exitY=1;exitDx=0;exitDy=0;entryX=0.5;entryY=0;entryDx=0;entryDy=0;" edge="1" parent="1" source="wVkEjL2hmuCHA1ZH5ngO-19" target="wVkEjL2hmuCHA1ZH5ngO-20">
          <mxGeometry relative="1" as="geometry" />
        </mxCell>
        <mxCell id="wVkEjL2hmuCHA1ZH5ngO-19" value="Username" style="shape=parallelogram;perimeter=parallelogramPerimeter;whiteSpace=wrap;html=1;fixedSize=1;" vertex="1" parent="1">
          <mxGeometry x="350" y="330" width="120" height="60" as="geometry" />
        </mxCell>
        <mxCell id="wVkEjL2hmuCHA1ZH5ngO-37" style="edgeStyle=orthogonalEdgeStyle;rounded=0;orthogonalLoop=1;jettySize=auto;html=1;exitX=0.5;exitY=1;exitDx=0;exitDy=0;entryX=0.5;entryY=0;entryDx=0;entryDy=0;" edge="1" parent="1" source="wVkEjL2hmuCHA1ZH5ngO-20" target="wVkEjL2hmuCHA1ZH5ngO-21">
          <mxGeometry relative="1" as="geometry" />
        </mxCell>
        <mxCell id="wVkEjL2hmuCHA1ZH5ngO-20" value="Get comments from API" style="rounded=0;whiteSpace=wrap;html=1;" vertex="1" parent="1">
          <mxGeometry x="350" y="410" width="120" height="60" as="geometry" />
        </mxCell>
        <mxCell id="wVkEjL2hmuCHA1ZH5ngO-21" value="Video response received?" style="rhombus;whiteSpace=wrap;html=1;" vertex="1" parent="1">
          <mxGeometry x="350" y="490" width="120" height="110" as="geometry" />
        </mxCell>
        <mxCell id="wVkEjL2hmuCHA1ZH5ngO-42" style="edgeStyle=orthogonalEdgeStyle;rounded=0;orthogonalLoop=1;jettySize=auto;html=1;exitX=0.5;exitY=1;exitDx=0;exitDy=0;entryX=0.5;entryY=0;entryDx=0;entryDy=0;" edge="1" parent="1" source="wVkEjL2hmuCHA1ZH5ngO-22" target="wVkEjL2hmuCHA1ZH5ngO-24">
          <mxGeometry relative="1" as="geometry" />
        </mxCell>
        <mxCell id="wVkEjL2hmuCHA1ZH5ngO-22" value="Iterate over comment threads" style="rounded=0;whiteSpace=wrap;html=1;" vertex="1" parent="1">
          <mxGeometry x="530" y="510" width="120" height="60" as="geometry" />
        </mxCell>
        <mxCell id="wVkEjL2hmuCHA1ZH5ngO-43" value="" style="edgeStyle=orthogonalEdgeStyle;rounded=0;orthogonalLoop=1;jettySize=auto;html=1;" edge="1" parent="1" source="wVkEjL2hmuCHA1ZH5ngO-24" target="wVkEjL2hmuCHA1ZH5ngO-25">
          <mxGeometry relative="1" as="geometry" />
        </mxCell>
        <mxCell id="wVkEjL2hmuCHA1ZH5ngO-44" value="" style="edgeStyle=orthogonalEdgeStyle;rounded=0;orthogonalLoop=1;jettySize=auto;html=1;" edge="1" parent="1" source="wVkEjL2hmuCHA1ZH5ngO-24" target="wVkEjL2hmuCHA1ZH5ngO-26">
          <mxGeometry relative="1" as="geometry" />
        </mxCell>
        <mxCell id="wVkEjL2hmuCHA1ZH5ngO-45" value="" style="edgeStyle=orthogonalEdgeStyle;rounded=0;orthogonalLoop=1;jettySize=auto;html=1;" edge="1" parent="1" source="wVkEjL2hmuCHA1ZH5ngO-24" target="wVkEjL2hmuCHA1ZH5ngO-27">
          <mxGeometry relative="1" as="geometry" />
        </mxCell>
        <mxCell id="wVkEjL2hmuCHA1ZH5ngO-24" value="Comment &lt;br&gt;author match?" style="rhombus;whiteSpace=wrap;html=1;" vertex="1" parent="1">
          <mxGeometry x="527.5" y="590" width="132.5" height="130" as="geometry" />
        </mxCell>
        <mxCell id="wVkEjL2hmuCHA1ZH5ngO-25" value="Skip comment" style="rounded=0;whiteSpace=wrap;html=1;" vertex="1" parent="1">
          <mxGeometry x="390" y="630" width="80" height="50" as="geometry" />
        </mxCell>
        <mxCell id="wVkEjL2hmuCHA1ZH5ngO-26" value="Add comment to list" style="rounded=0;whiteSpace=wrap;html=1;" vertex="1" parent="1">
          <mxGeometry x="700" y="625" width="120" height="60" as="geometry" />
        </mxCell>
        <mxCell id="wVkEjL2hmuCHA1ZH5ngO-46" value="" style="edgeStyle=orthogonalEdgeStyle;rounded=0;orthogonalLoop=1;jettySize=auto;html=1;" edge="1" parent="1" source="wVkEjL2hmuCHA1ZH5ngO-27" target="wVkEjL2hmuCHA1ZH5ngO-28">
          <mxGeometry relative="1" as="geometry" />
        </mxCell>
        <mxCell id="wVkEjL2hmuCHA1ZH5ngO-47" value="" style="edgeStyle=orthogonalEdgeStyle;rounded=0;orthogonalLoop=1;jettySize=auto;html=1;" edge="1" parent="1" source="wVkEjL2hmuCHA1ZH5ngO-27" target="wVkEjL2hmuCHA1ZH5ngO-29">
          <mxGeometry relative="1" as="geometry" />
        </mxCell>
        <mxCell id="wVkEjL2hmuCHA1ZH5ngO-27" value="More comments&lt;br&gt;available?" style="rhombus;whiteSpace=wrap;html=1;" vertex="1" parent="1">
          <mxGeometry x="530" y="750" width="130" height="120" as="geometry" />
        </mxCell>
        <mxCell id="wVkEjL2hmuCHA1ZH5ngO-28" value="Recursive call for next page" style="rounded=0;whiteSpace=wrap;html=1;" vertex="1" parent="1">
          <mxGeometry x="690" y="780" width="120" height="60" as="geometry" />
        </mxCell>
        <mxCell id="wVkEjL2hmuCHA1ZH5ngO-48" value="" style="edgeStyle=orthogonalEdgeStyle;rounded=0;orthogonalLoop=1;jettySize=auto;html=1;" edge="1" parent="1" source="wVkEjL2hmuCHA1ZH5ngO-29" target="wVkEjL2hmuCHA1ZH5ngO-31">
          <mxGeometry relative="1" as="geometry" />
        </mxCell>
        <mxCell id="wVkEjL2hmuCHA1ZH5ngO-29" value="Continue to print comments" style="rounded=0;whiteSpace=wrap;html=1;" vertex="1" parent="1">
          <mxGeometry x="390" y="780" width="120" height="60" as="geometry" />
        </mxCell>
        <mxCell id="wVkEjL2hmuCHA1ZH5ngO-30" value="No response" style="rounded=1;whiteSpace=wrap;html=1;" vertex="1" parent="1">
          <mxGeometry x="170" y="520" width="120" height="60" as="geometry" />
        </mxCell>
        <mxCell id="wVkEjL2hmuCHA1ZH5ngO-31" value="Print comments" style="rounded=1;whiteSpace=wrap;html=1;" vertex="1" parent="1">
          <mxGeometry x="390" y="880" width="120" height="60" as="geometry" />
        </mxCell>
        <mxCell id="wVkEjL2hmuCHA1ZH5ngO-40" style="edgeStyle=orthogonalEdgeStyle;rounded=0;orthogonalLoop=1;jettySize=auto;html=1;exitX=0;exitY=0.5;exitDx=0;exitDy=0;entryX=1;entryY=0.417;entryDx=0;entryDy=0;entryPerimeter=0;" edge="1" parent="1" source="wVkEjL2hmuCHA1ZH5ngO-21" target="wVkEjL2hmuCHA1ZH5ngO-30">
          <mxGeometry relative="1" as="geometry" />
        </mxCell>
        <mxCell id="wVkEjL2hmuCHA1ZH5ngO-41" style="edgeStyle=orthogonalEdgeStyle;rounded=0;orthogonalLoop=1;jettySize=auto;html=1;exitX=1;exitY=0.5;exitDx=0;exitDy=0;entryX=-0.023;entryY=0.568;entryDx=0;entryDy=0;entryPerimeter=0;" edge="1" parent="1" source="wVkEjL2hmuCHA1ZH5ngO-21" target="wVkEjL2hmuCHA1ZH5ngO-22">
          <mxGeometry relative="1" as="geometry" />
        </mxCell>
      </root>
    </mxGraphModel>
  </diagram>
</mxfile>
